<mxfile host="app.diagrams.net" agent="Mozilla/5.0 (Windows NT 10.0; Win64; x64) AppleWebKit/537.36 (KHTML, like Gecko) Chrome/140.0.0.0 Safari/537.36" version="28.2.3">
  <diagram name="Trang-1" id="rn-aDboXYUXcxpTpMKXD">
    <mxGraphModel dx="2893" dy="811" grid="1" gridSize="10" guides="1" tooltips="1" connect="1" arrows="1" fold="1" page="1" pageScale="1" pageWidth="827" pageHeight="1169" math="0" shadow="0">
      <root>
        <mxCell id="0" />
        <mxCell id="1" parent="0" />
        <mxCell id="FvNyua4B0vI4wuUaa5z8-1" value="" style="swimlane;startSize=0;" vertex="1" parent="1">
          <mxGeometry x="104" y="30" width="726" height="740" as="geometry" />
        </mxCell>
        <mxCell id="FvNyua4B0vI4wuUaa5z8-2" value="Đăng ký tài khoản" style="ellipse;whiteSpace=wrap;html=1;" vertex="1" parent="FvNyua4B0vI4wuUaa5z8-1">
          <mxGeometry x="20" y="10" width="120" height="50" as="geometry" />
        </mxCell>
        <mxCell id="FvNyua4B0vI4wuUaa5z8-4" value="Quản lý hồ sơ cá nhân" style="ellipse;whiteSpace=wrap;html=1;" vertex="1" parent="FvNyua4B0vI4wuUaa5z8-1">
          <mxGeometry x="20" y="90" width="120" height="50" as="geometry" />
        </mxCell>
        <mxCell id="FvNyua4B0vI4wuUaa5z8-5" value="Tìm kiếm tài liệu" style="ellipse;whiteSpace=wrap;html=1;" vertex="1" parent="FvNyua4B0vI4wuUaa5z8-1">
          <mxGeometry x="30" y="200" width="120" height="50" as="geometry" />
        </mxCell>
        <mxCell id="FvNyua4B0vI4wuUaa5z8-6" value="Xem chi tiết tài liệu" style="ellipse;whiteSpace=wrap;html=1;" vertex="1" parent="FvNyua4B0vI4wuUaa5z8-1">
          <mxGeometry x="140" y="270" width="120" height="50" as="geometry" />
        </mxCell>
        <mxCell id="FvNyua4B0vI4wuUaa5z8-7" value="Đọc trực tuyến tài liệu điện tử" style="ellipse;whiteSpace=wrap;html=1;" vertex="1" parent="FvNyua4B0vI4wuUaa5z8-1">
          <mxGeometry x="30" y="525" width="120" height="50" as="geometry" />
        </mxCell>
        <mxCell id="FvNyua4B0vI4wuUaa5z8-8" value="Tải tài liệu điện tử" style="ellipse;whiteSpace=wrap;html=1;" vertex="1" parent="FvNyua4B0vI4wuUaa5z8-1">
          <mxGeometry x="30" y="460" width="120" height="50" as="geometry" />
        </mxCell>
        <mxCell id="FvNyua4B0vI4wuUaa5z8-9" value="Đăng ký mượn sách giấy" style="ellipse;whiteSpace=wrap;html=1;" vertex="1" parent="FvNyua4B0vI4wuUaa5z8-1">
          <mxGeometry x="30" y="380" width="120" height="50" as="geometry" />
        </mxCell>
        <mxCell id="FvNyua4B0vI4wuUaa5z8-10" value="Đặt mua tài liệu" style="ellipse;whiteSpace=wrap;html=1;" vertex="1" parent="FvNyua4B0vI4wuUaa5z8-1">
          <mxGeometry x="136" y="580" width="120" height="50" as="geometry" />
        </mxCell>
        <mxCell id="FvNyua4B0vI4wuUaa5z8-11" value="Quản lý mượn - Trả sách" style="ellipse;whiteSpace=wrap;html=1;" vertex="1" parent="FvNyua4B0vI4wuUaa5z8-1">
          <mxGeometry x="466" y="10" width="120" height="50" as="geometry" />
        </mxCell>
        <mxCell id="FvNyua4B0vI4wuUaa5z8-12" value="Cập nhật danh mục tài liệu" style="ellipse;whiteSpace=wrap;html=1;" vertex="1" parent="FvNyua4B0vI4wuUaa5z8-1">
          <mxGeometry x="496" y="240" width="120" height="50" as="geometry" />
        </mxCell>
        <mxCell id="FvNyua4B0vI4wuUaa5z8-13" value="Duyệt yêu cầu đặt mua" style="ellipse;whiteSpace=wrap;html=1;" vertex="1" parent="FvNyua4B0vI4wuUaa5z8-1">
          <mxGeometry x="596" y="410" width="120" height="50" as="geometry" />
        </mxCell>
        <mxCell id="FvNyua4B0vI4wuUaa5z8-15" value="Xem tình trạng mượn sách" style="ellipse;whiteSpace=wrap;html=1;" vertex="1" parent="FvNyua4B0vI4wuUaa5z8-1">
          <mxGeometry x="466" y="140" width="120" height="50" as="geometry" />
        </mxCell>
        <mxCell id="FvNyua4B0vI4wuUaa5z8-16" value="Gửi email nhắc nhở bạn trả" style="ellipse;whiteSpace=wrap;html=1;" vertex="1" parent="FvNyua4B0vI4wuUaa5z8-1">
          <mxGeometry x="526" y="640" width="120" height="50" as="geometry" />
        </mxCell>
        <mxCell id="FvNyua4B0vI4wuUaa5z8-17" value="Thống kê - Báo cáo" style="ellipse;whiteSpace=wrap;html=1;" vertex="1" parent="FvNyua4B0vI4wuUaa5z8-1">
          <mxGeometry x="536" y="550" width="120" height="50" as="geometry" />
        </mxCell>
        <mxCell id="FvNyua4B0vI4wuUaa5z8-41" value="" style="endArrow=openThin;dashed=1;html=1;strokeWidth=1;rounded=0;entryX=0.5;entryY=1;entryDx=0;entryDy=0;exitX=0;exitY=0;exitDx=0;exitDy=0;endFill=0;startArrow=none;startFill=0;" edge="1" parent="FvNyua4B0vI4wuUaa5z8-1" source="FvNyua4B0vI4wuUaa5z8-6" target="FvNyua4B0vI4wuUaa5z8-5">
          <mxGeometry width="50" height="50" relative="1" as="geometry">
            <mxPoint x="280" y="440" as="sourcePoint" />
            <mxPoint x="330" y="390" as="targetPoint" />
          </mxGeometry>
        </mxCell>
        <mxCell id="FvNyua4B0vI4wuUaa5z8-47" value="" style="endArrow=openThin;dashed=1;html=1;strokeWidth=1;rounded=0;entryX=0.5;entryY=0;entryDx=0;entryDy=0;exitX=0.5;exitY=1;exitDx=0;exitDy=0;endFill=0;startArrow=none;startFill=0;" edge="1" parent="FvNyua4B0vI4wuUaa5z8-1" source="FvNyua4B0vI4wuUaa5z8-6" target="FvNyua4B0vI4wuUaa5z8-9">
          <mxGeometry width="50" height="50" relative="1" as="geometry">
            <mxPoint x="348" y="189" as="sourcePoint" />
            <mxPoint x="180" y="765" as="targetPoint" />
          </mxGeometry>
        </mxCell>
        <mxCell id="FvNyua4B0vI4wuUaa5z8-49" value="Thông báo trùng thông tin" style="ellipse;whiteSpace=wrap;html=1;" vertex="1" parent="FvNyua4B0vI4wuUaa5z8-1">
          <mxGeometry x="214" y="10" width="120" height="50" as="geometry" />
        </mxCell>
        <mxCell id="FvNyua4B0vI4wuUaa5z8-50" value="" style="endArrow=none;dashed=1;html=1;strokeWidth=1;rounded=0;entryX=0;entryY=0.5;entryDx=0;entryDy=0;exitX=1;exitY=0.5;exitDx=0;exitDy=0;endFill=0;startArrow=openThin;startFill=0;" edge="1" parent="FvNyua4B0vI4wuUaa5z8-1" source="FvNyua4B0vI4wuUaa5z8-2" target="FvNyua4B0vI4wuUaa5z8-49">
          <mxGeometry width="50" height="50" relative="1" as="geometry">
            <mxPoint x="330" y="190" as="sourcePoint" />
            <mxPoint x="180" y="585" as="targetPoint" />
          </mxGeometry>
        </mxCell>
        <mxCell id="FvNyua4B0vI4wuUaa5z8-51" value="Quên mật khẩu" style="ellipse;whiteSpace=wrap;html=1;" vertex="1" parent="FvNyua4B0vI4wuUaa5z8-1">
          <mxGeometry x="436" y="300" width="120" height="50" as="geometry" />
        </mxCell>
        <mxCell id="FvNyua4B0vI4wuUaa5z8-53" value="Thay đổi thông tin cá nhân" style="ellipse;whiteSpace=wrap;html=1;" vertex="1" parent="FvNyua4B0vI4wuUaa5z8-1">
          <mxGeometry x="214" y="90" width="120" height="50" as="geometry" />
        </mxCell>
        <mxCell id="FvNyua4B0vI4wuUaa5z8-54" value="" style="endArrow=none;dashed=1;html=1;strokeWidth=1;rounded=0;entryX=0;entryY=0.5;entryDx=0;entryDy=0;exitX=1;exitY=0.5;exitDx=0;exitDy=0;endFill=0;startArrow=openThin;startFill=0;" edge="1" parent="FvNyua4B0vI4wuUaa5z8-1" source="FvNyua4B0vI4wuUaa5z8-4" target="FvNyua4B0vI4wuUaa5z8-53">
          <mxGeometry width="50" height="50" relative="1" as="geometry">
            <mxPoint x="150" y="45" as="sourcePoint" />
            <mxPoint x="224" y="45" as="targetPoint" />
          </mxGeometry>
        </mxCell>
        <mxCell id="FvNyua4B0vI4wuUaa5z8-55" value="Thông báo không tìm thấy" style="ellipse;whiteSpace=wrap;html=1;" vertex="1" parent="FvNyua4B0vI4wuUaa5z8-1">
          <mxGeometry x="190" y="150" width="120" height="50" as="geometry" />
        </mxCell>
        <mxCell id="FvNyua4B0vI4wuUaa5z8-56" value="" style="endArrow=none;dashed=1;html=1;strokeWidth=1;rounded=0;entryX=0;entryY=0.5;entryDx=0;entryDy=0;exitX=0.5;exitY=0;exitDx=0;exitDy=0;endFill=0;startArrow=openThin;startFill=0;" edge="1" parent="FvNyua4B0vI4wuUaa5z8-1" source="FvNyua4B0vI4wuUaa5z8-5" target="FvNyua4B0vI4wuUaa5z8-55">
          <mxGeometry width="50" height="50" relative="1" as="geometry">
            <mxPoint x="150" y="45" as="sourcePoint" />
            <mxPoint x="224" y="45" as="targetPoint" />
          </mxGeometry>
        </mxCell>
        <mxCell id="FvNyua4B0vI4wuUaa5z8-57" value="Gợi ý tài liệu liên quan" style="ellipse;whiteSpace=wrap;html=1;" vertex="1" parent="FvNyua4B0vI4wuUaa5z8-1">
          <mxGeometry x="316" y="250" width="120" height="50" as="geometry" />
        </mxCell>
        <mxCell id="FvNyua4B0vI4wuUaa5z8-58" value="" style="endArrow=none;dashed=1;html=1;strokeWidth=1;rounded=0;entryX=0;entryY=0.5;entryDx=0;entryDy=0;exitX=1;exitY=0.5;exitDx=0;exitDy=0;endFill=0;startArrow=openThin;startFill=0;" edge="1" parent="FvNyua4B0vI4wuUaa5z8-1" source="FvNyua4B0vI4wuUaa5z8-6" target="FvNyua4B0vI4wuUaa5z8-57">
          <mxGeometry width="50" height="50" relative="1" as="geometry">
            <mxPoint x="100" y="210" as="sourcePoint" />
            <mxPoint x="200" y="185" as="targetPoint" />
          </mxGeometry>
        </mxCell>
        <mxCell id="FvNyua4B0vI4wuUaa5z8-3" value="Đăng nhập" style="ellipse;whiteSpace=wrap;html=1;" vertex="1" parent="FvNyua4B0vI4wuUaa5z8-1">
          <mxGeometry x="426" y="390" width="120" height="50" as="geometry" />
        </mxCell>
        <mxCell id="FvNyua4B0vI4wuUaa5z8-43" value="" style="endArrow=none;dashed=1;html=1;strokeWidth=1;rounded=0;entryX=1;entryY=0.5;entryDx=0;entryDy=0;exitX=0;exitY=1;exitDx=0;exitDy=0;endFill=0;startArrow=openThin;startFill=0;" edge="1" parent="FvNyua4B0vI4wuUaa5z8-1" source="FvNyua4B0vI4wuUaa5z8-3" target="FvNyua4B0vI4wuUaa5z8-8">
          <mxGeometry width="50" height="50" relative="1" as="geometry">
            <mxPoint x="120" y="400" as="sourcePoint" />
            <mxPoint x="120" y="330" as="targetPoint" />
          </mxGeometry>
        </mxCell>
        <mxCell id="FvNyua4B0vI4wuUaa5z8-45" value="" style="endArrow=none;dashed=1;html=1;strokeWidth=1;rounded=0;entryX=1;entryY=0;entryDx=0;entryDy=0;exitX=0.275;exitY=0.92;exitDx=0;exitDy=0;endFill=0;startArrow=openThin;startFill=0;exitPerimeter=0;" edge="1" parent="FvNyua4B0vI4wuUaa5z8-1" source="FvNyua4B0vI4wuUaa5z8-3" target="FvNyua4B0vI4wuUaa5z8-10">
          <mxGeometry width="50" height="50" relative="1" as="geometry">
            <mxPoint x="330" y="190" as="sourcePoint" />
            <mxPoint x="180" y="585" as="targetPoint" />
          </mxGeometry>
        </mxCell>
        <mxCell id="FvNyua4B0vI4wuUaa5z8-52" value="" style="endArrow=none;dashed=1;html=1;strokeWidth=1;rounded=0;entryX=0.5;entryY=1;entryDx=0;entryDy=0;exitX=0.5;exitY=0;exitDx=0;exitDy=0;endFill=0;startArrow=openThin;startFill=0;" edge="1" parent="FvNyua4B0vI4wuUaa5z8-1" source="FvNyua4B0vI4wuUaa5z8-3" target="FvNyua4B0vI4wuUaa5z8-51">
          <mxGeometry width="50" height="50" relative="1" as="geometry">
            <mxPoint x="180" y="95" as="sourcePoint" />
            <mxPoint x="240" y="45" as="targetPoint" />
          </mxGeometry>
        </mxCell>
        <mxCell id="FvNyua4B0vI4wuUaa5z8-59" value="Thông báo hết sách" style="ellipse;whiteSpace=wrap;html=1;" vertex="1" parent="FvNyua4B0vI4wuUaa5z8-1">
          <mxGeometry x="296" y="350" width="120" height="50" as="geometry" />
        </mxCell>
        <mxCell id="FvNyua4B0vI4wuUaa5z8-60" value="" style="endArrow=none;dashed=1;html=1;strokeWidth=1;rounded=0;entryX=0;entryY=0.5;entryDx=0;entryDy=0;exitX=1;exitY=0;exitDx=0;exitDy=0;endFill=0;startArrow=openThin;startFill=0;" edge="1" parent="FvNyua4B0vI4wuUaa5z8-1" source="FvNyua4B0vI4wuUaa5z8-9" target="FvNyua4B0vI4wuUaa5z8-59">
          <mxGeometry width="50" height="50" relative="1" as="geometry">
            <mxPoint x="100" y="210" as="sourcePoint" />
            <mxPoint x="200" y="185" as="targetPoint" />
          </mxGeometry>
        </mxCell>
        <mxCell id="FvNyua4B0vI4wuUaa5z8-61" value="Yêu cầu bị từ chối" style="ellipse;whiteSpace=wrap;html=1;" vertex="1" parent="FvNyua4B0vI4wuUaa5z8-1">
          <mxGeometry x="356" y="575" width="120" height="50" as="geometry" />
        </mxCell>
        <mxCell id="FvNyua4B0vI4wuUaa5z8-62" value="" style="endArrow=none;dashed=1;html=1;strokeWidth=1;rounded=0;entryX=0;entryY=0.5;entryDx=0;entryDy=0;exitX=1;exitY=0.5;exitDx=0;exitDy=0;endFill=0;startArrow=openThin;startFill=0;" edge="1" parent="FvNyua4B0vI4wuUaa5z8-1" source="FvNyua4B0vI4wuUaa5z8-10" target="FvNyua4B0vI4wuUaa5z8-61">
          <mxGeometry width="50" height="50" relative="1" as="geometry">
            <mxPoint x="130" y="420" as="sourcePoint" />
            <mxPoint x="210" y="475" as="targetPoint" />
          </mxGeometry>
        </mxCell>
        <mxCell id="FvNyua4B0vI4wuUaa5z8-63" value="" style="endArrow=none;dashed=1;html=1;strokeWidth=1;rounded=0;entryX=0.5;entryY=1;entryDx=0;entryDy=0;exitX=0.5;exitY=0;exitDx=0;exitDy=0;endFill=0;startArrow=openThin;startFill=0;" edge="1" parent="FvNyua4B0vI4wuUaa5z8-1" source="FvNyua4B0vI4wuUaa5z8-15" target="FvNyua4B0vI4wuUaa5z8-11">
          <mxGeometry width="50" height="50" relative="1" as="geometry">
            <mxPoint x="168" y="287" as="sourcePoint" />
            <mxPoint x="100" y="260" as="targetPoint" />
          </mxGeometry>
        </mxCell>
        <mxCell id="FvNyua4B0vI4wuUaa5z8-64" value="Bổ sung thông tin" style="ellipse;whiteSpace=wrap;html=1;" vertex="1" parent="FvNyua4B0vI4wuUaa5z8-1">
          <mxGeometry x="486" y="495" width="120" height="50" as="geometry" />
        </mxCell>
        <mxCell id="FvNyua4B0vI4wuUaa5z8-65" value="" style="endArrow=none;dashed=1;html=1;strokeWidth=1;rounded=0;entryX=0.5;entryY=0;entryDx=0;entryDy=0;exitX=0;exitY=1;exitDx=0;exitDy=0;endFill=0;startArrow=openThin;startFill=0;" edge="1" parent="FvNyua4B0vI4wuUaa5z8-1" source="FvNyua4B0vI4wuUaa5z8-13" target="FvNyua4B0vI4wuUaa5z8-64">
          <mxGeometry width="50" height="50" relative="1" as="geometry">
            <mxPoint x="391" y="439" as="sourcePoint" />
            <mxPoint x="138" y="617" as="targetPoint" />
          </mxGeometry>
        </mxCell>
        <mxCell id="FvNyua4B0vI4wuUaa5z8-66" value="Cảnh báo phạt quá hạn" style="ellipse;whiteSpace=wrap;html=1;" vertex="1" parent="FvNyua4B0vI4wuUaa5z8-1">
          <mxGeometry x="316" y="670" width="120" height="50" as="geometry" />
        </mxCell>
        <mxCell id="FvNyua4B0vI4wuUaa5z8-67" value="" style="endArrow=none;dashed=1;html=1;strokeWidth=1;rounded=0;entryX=1;entryY=0.5;entryDx=0;entryDy=0;exitX=0;exitY=0.5;exitDx=0;exitDy=0;endFill=0;startArrow=openThin;startFill=0;" edge="1" parent="FvNyua4B0vI4wuUaa5z8-1" source="FvNyua4B0vI4wuUaa5z8-16" target="FvNyua4B0vI4wuUaa5z8-66">
          <mxGeometry width="50" height="50" relative="1" as="geometry">
            <mxPoint x="391" y="439" as="sourcePoint" />
            <mxPoint x="138" y="617" as="targetPoint" />
          </mxGeometry>
        </mxCell>
        <mxCell id="FvNyua4B0vI4wuUaa5z8-68" value="&amp;lt;&amp;lt;extend&amp;gt;&amp;gt;" style="text;html=1;align=center;verticalAlign=middle;whiteSpace=wrap;rounded=0;" vertex="1" parent="FvNyua4B0vI4wuUaa5z8-1">
          <mxGeometry x="146" y="10" width="60" height="30" as="geometry" />
        </mxCell>
        <mxCell id="FvNyua4B0vI4wuUaa5z8-69" value="&amp;lt;&amp;lt;extend&amp;gt;&amp;gt;" style="text;html=1;align=center;verticalAlign=middle;whiteSpace=wrap;rounded=0;" vertex="1" parent="FvNyua4B0vI4wuUaa5z8-1">
          <mxGeometry x="150" y="90" width="60" height="30" as="geometry" />
        </mxCell>
        <mxCell id="FvNyua4B0vI4wuUaa5z8-70" value="&amp;lt;&amp;lt;extend&amp;gt;&amp;gt;" style="text;html=1;align=center;verticalAlign=middle;whiteSpace=wrap;rounded=0;rotation=-15;" vertex="1" parent="FvNyua4B0vI4wuUaa5z8-1">
          <mxGeometry x="106" y="160" width="60" height="30" as="geometry" />
        </mxCell>
        <mxCell id="FvNyua4B0vI4wuUaa5z8-71" value="&amp;lt;&amp;lt;extend&amp;gt;&amp;gt;" style="text;html=1;align=center;verticalAlign=middle;whiteSpace=wrap;rounded=0;rotation=0;" vertex="1" parent="FvNyua4B0vI4wuUaa5z8-1">
          <mxGeometry x="116" y="240" width="60" height="30" as="geometry" />
        </mxCell>
        <mxCell id="FvNyua4B0vI4wuUaa5z8-72" value="&amp;lt;&amp;lt;extend&amp;gt;&amp;gt;" style="text;html=1;align=center;verticalAlign=middle;whiteSpace=wrap;rounded=0;rotation=0;" vertex="1" parent="FvNyua4B0vI4wuUaa5z8-1">
          <mxGeometry x="246" y="260" width="60" height="30" as="geometry" />
        </mxCell>
        <mxCell id="FvNyua4B0vI4wuUaa5z8-73" value="&amp;lt;&amp;lt;extend&amp;gt;&amp;gt;" style="text;html=1;align=center;verticalAlign=middle;whiteSpace=wrap;rounded=0;rotation=0;" vertex="1" parent="FvNyua4B0vI4wuUaa5z8-1">
          <mxGeometry x="96" y="330" width="60" height="30" as="geometry" />
        </mxCell>
        <mxCell id="FvNyua4B0vI4wuUaa5z8-74" value="&amp;lt;&amp;lt;extend&amp;gt;&amp;gt;" style="text;html=1;align=center;verticalAlign=middle;whiteSpace=wrap;rounded=0;rotation=0;" vertex="1" parent="FvNyua4B0vI4wuUaa5z8-1">
          <mxGeometry x="226" y="350" width="60" height="30" as="geometry" />
        </mxCell>
        <mxCell id="FvNyua4B0vI4wuUaa5z8-75" value="&amp;lt;&amp;lt;extend&amp;gt;&amp;gt;" style="text;html=1;align=center;verticalAlign=middle;whiteSpace=wrap;rounded=0;rotation=0;" vertex="1" parent="FvNyua4B0vI4wuUaa5z8-1">
          <mxGeometry x="426" y="350" width="60" height="30" as="geometry" />
        </mxCell>
        <mxCell id="FvNyua4B0vI4wuUaa5z8-76" value="&amp;lt;&amp;lt;extend&amp;gt;&amp;gt;" style="text;html=1;align=center;verticalAlign=middle;whiteSpace=wrap;rounded=0;rotation=0;" vertex="1" parent="FvNyua4B0vI4wuUaa5z8-1">
          <mxGeometry x="516" y="450" width="60" height="30" as="geometry" />
        </mxCell>
        <mxCell id="FvNyua4B0vI4wuUaa5z8-77" value="&amp;lt;&amp;lt;extend&amp;gt;&amp;gt;" style="text;html=1;align=center;verticalAlign=middle;whiteSpace=wrap;rounded=0;rotation=0;" vertex="1" parent="FvNyua4B0vI4wuUaa5z8-1">
          <mxGeometry x="286" y="575" width="60" height="30" as="geometry" />
        </mxCell>
        <mxCell id="FvNyua4B0vI4wuUaa5z8-78" value="&amp;lt;&amp;lt;extend&amp;gt;&amp;gt;" style="text;html=1;align=center;verticalAlign=middle;whiteSpace=wrap;rounded=0;rotation=0;" vertex="1" parent="FvNyua4B0vI4wuUaa5z8-1">
          <mxGeometry x="436" y="660" width="60" height="30" as="geometry" />
        </mxCell>
        <mxCell id="FvNyua4B0vI4wuUaa5z8-80" value="&amp;lt;&amp;lt;include&amp;gt;&amp;gt;" style="text;html=1;align=center;verticalAlign=middle;whiteSpace=wrap;rounded=0;" vertex="1" parent="FvNyua4B0vI4wuUaa5z8-1">
          <mxGeometry x="286" y="430" width="60" height="30" as="geometry" />
        </mxCell>
        <mxCell id="FvNyua4B0vI4wuUaa5z8-81" value="&amp;lt;&amp;lt;include&amp;gt;&amp;gt;" style="text;html=1;align=center;verticalAlign=middle;whiteSpace=wrap;rounded=0;" vertex="1" parent="FvNyua4B0vI4wuUaa5z8-1">
          <mxGeometry x="306" y="470" width="60" height="30" as="geometry" />
        </mxCell>
        <mxCell id="FvNyua4B0vI4wuUaa5z8-82" value="&amp;lt;&amp;lt;include&amp;gt;&amp;gt;" style="text;html=1;align=center;verticalAlign=middle;whiteSpace=wrap;rounded=0;" vertex="1" parent="FvNyua4B0vI4wuUaa5z8-1">
          <mxGeometry x="486" y="80" width="60" height="30" as="geometry" />
        </mxCell>
        <mxCell id="FvNyua4B0vI4wuUaa5z8-83" value="" style="endArrow=none;dashed=1;html=1;strokeWidth=1;rounded=0;entryX=1;entryY=0;entryDx=0;entryDy=0;exitX=0.575;exitY=1.04;exitDx=0;exitDy=0;endFill=0;startArrow=openThin;startFill=0;exitPerimeter=0;" edge="1" parent="FvNyua4B0vI4wuUaa5z8-1" source="FvNyua4B0vI4wuUaa5z8-6" target="FvNyua4B0vI4wuUaa5z8-7">
          <mxGeometry width="50" height="50" relative="1" as="geometry">
            <mxPoint x="391" y="439" as="sourcePoint" />
            <mxPoint x="138" y="617" as="targetPoint" />
          </mxGeometry>
        </mxCell>
        <mxCell id="FvNyua4B0vI4wuUaa5z8-84" value="&amp;lt;&amp;lt;include&amp;gt;&amp;gt;" style="text;html=1;align=center;verticalAlign=middle;whiteSpace=wrap;rounded=0;" vertex="1" parent="FvNyua4B0vI4wuUaa5z8-1">
          <mxGeometry x="156" y="400" width="60" height="30" as="geometry" />
        </mxCell>
        <mxCell id="FvNyua4B0vI4wuUaa5z8-86" value="" style="endArrow=none;dashed=1;html=1;strokeWidth=1;rounded=0;entryX=0.5;entryY=0;entryDx=0;entryDy=0;exitX=0.717;exitY=0.9;exitDx=0;exitDy=0;endFill=0;startArrow=openThin;startFill=0;exitPerimeter=0;" edge="1" parent="FvNyua4B0vI4wuUaa5z8-1" source="FvNyua4B0vI4wuUaa5z8-6" target="FvNyua4B0vI4wuUaa5z8-10">
          <mxGeometry width="50" height="50" relative="1" as="geometry">
            <mxPoint x="219" y="332" as="sourcePoint" />
            <mxPoint x="142" y="542" as="targetPoint" />
          </mxGeometry>
        </mxCell>
        <mxCell id="FvNyua4B0vI4wuUaa5z8-87" value="&amp;lt;&amp;lt;include&amp;gt;&amp;gt;" style="text;html=1;align=center;verticalAlign=middle;whiteSpace=wrap;rounded=0;" vertex="1" parent="FvNyua4B0vI4wuUaa5z8-1">
          <mxGeometry x="200" y="495" width="60" height="30" as="geometry" />
        </mxCell>
        <mxCell id="FvNyua4B0vI4wuUaa5z8-18" value="Độc giả" style="shape=umlActor;verticalLabelPosition=bottom;verticalAlign=top;html=1;outlineConnect=0;" vertex="1" parent="1">
          <mxGeometry x="-150" y="495" width="30" height="60" as="geometry" />
        </mxCell>
        <mxCell id="FvNyua4B0vI4wuUaa5z8-19" value="" style="endArrow=none;html=1;rounded=0;entryX=0;entryY=0.5;entryDx=0;entryDy=0;exitX=1;exitY=0.3333333333333333;exitDx=0;exitDy=0;exitPerimeter=0;" edge="1" parent="1" source="FvNyua4B0vI4wuUaa5z8-18" target="FvNyua4B0vI4wuUaa5z8-2">
          <mxGeometry width="50" height="50" relative="1" as="geometry">
            <mxPoint x="390" y="440" as="sourcePoint" />
            <mxPoint x="440" y="390" as="targetPoint" />
          </mxGeometry>
        </mxCell>
        <mxCell id="FvNyua4B0vI4wuUaa5z8-20" value="" style="endArrow=none;html=1;rounded=0;exitX=1;exitY=0.3333333333333333;exitDx=0;exitDy=0;exitPerimeter=0;entryX=0;entryY=0.5;entryDx=0;entryDy=0;" edge="1" parent="1" source="FvNyua4B0vI4wuUaa5z8-18" target="FvNyua4B0vI4wuUaa5z8-3">
          <mxGeometry width="50" height="50" relative="1" as="geometry">
            <mxPoint x="390" y="440" as="sourcePoint" />
            <mxPoint x="440" y="390" as="targetPoint" />
          </mxGeometry>
        </mxCell>
        <mxCell id="FvNyua4B0vI4wuUaa5z8-21" value="" style="endArrow=none;html=1;rounded=0;exitX=1;exitY=0.3333333333333333;exitDx=0;exitDy=0;exitPerimeter=0;entryX=0;entryY=0.5;entryDx=0;entryDy=0;" edge="1" parent="1" source="FvNyua4B0vI4wuUaa5z8-18" target="FvNyua4B0vI4wuUaa5z8-4">
          <mxGeometry width="50" height="50" relative="1" as="geometry">
            <mxPoint x="390" y="440" as="sourcePoint" />
            <mxPoint x="440" y="390" as="targetPoint" />
          </mxGeometry>
        </mxCell>
        <mxCell id="FvNyua4B0vI4wuUaa5z8-22" value="" style="endArrow=none;html=1;rounded=0;exitX=1;exitY=0.3333333333333333;exitDx=0;exitDy=0;exitPerimeter=0;entryX=0;entryY=0.5;entryDx=0;entryDy=0;" edge="1" parent="1" source="FvNyua4B0vI4wuUaa5z8-18" target="FvNyua4B0vI4wuUaa5z8-5">
          <mxGeometry width="50" height="50" relative="1" as="geometry">
            <mxPoint x="390" y="440" as="sourcePoint" />
            <mxPoint x="440" y="390" as="targetPoint" />
          </mxGeometry>
        </mxCell>
        <mxCell id="FvNyua4B0vI4wuUaa5z8-23" value="" style="endArrow=none;html=1;rounded=0;exitX=1;exitY=0.3333333333333333;exitDx=0;exitDy=0;exitPerimeter=0;entryX=0;entryY=0.5;entryDx=0;entryDy=0;" edge="1" parent="1" source="FvNyua4B0vI4wuUaa5z8-18" target="FvNyua4B0vI4wuUaa5z8-6">
          <mxGeometry width="50" height="50" relative="1" as="geometry">
            <mxPoint x="390" y="440" as="sourcePoint" />
            <mxPoint x="440" y="390" as="targetPoint" />
          </mxGeometry>
        </mxCell>
        <mxCell id="FvNyua4B0vI4wuUaa5z8-24" value="" style="endArrow=none;html=1;rounded=0;exitX=1;exitY=0.3333333333333333;exitDx=0;exitDy=0;exitPerimeter=0;entryX=0;entryY=0.5;entryDx=0;entryDy=0;" edge="1" parent="1" source="FvNyua4B0vI4wuUaa5z8-18" target="FvNyua4B0vI4wuUaa5z8-7">
          <mxGeometry width="50" height="50" relative="1" as="geometry">
            <mxPoint x="390" y="440" as="sourcePoint" />
            <mxPoint x="440" y="390" as="targetPoint" />
          </mxGeometry>
        </mxCell>
        <mxCell id="FvNyua4B0vI4wuUaa5z8-25" value="" style="endArrow=none;html=1;rounded=0;exitX=1;exitY=0.3333333333333333;exitDx=0;exitDy=0;exitPerimeter=0;entryX=0;entryY=0.5;entryDx=0;entryDy=0;" edge="1" parent="1" source="FvNyua4B0vI4wuUaa5z8-18" target="FvNyua4B0vI4wuUaa5z8-8">
          <mxGeometry width="50" height="50" relative="1" as="geometry">
            <mxPoint x="390" y="440" as="sourcePoint" />
            <mxPoint x="440" y="390" as="targetPoint" />
          </mxGeometry>
        </mxCell>
        <mxCell id="FvNyua4B0vI4wuUaa5z8-26" value="" style="endArrow=none;html=1;rounded=0;exitX=1;exitY=0.3333333333333333;exitDx=0;exitDy=0;exitPerimeter=0;entryX=0;entryY=0.5;entryDx=0;entryDy=0;" edge="1" parent="1" source="FvNyua4B0vI4wuUaa5z8-18" target="FvNyua4B0vI4wuUaa5z8-9">
          <mxGeometry width="50" height="50" relative="1" as="geometry">
            <mxPoint x="390" y="440" as="sourcePoint" />
            <mxPoint x="440" y="390" as="targetPoint" />
          </mxGeometry>
        </mxCell>
        <mxCell id="FvNyua4B0vI4wuUaa5z8-27" value="" style="endArrow=none;html=1;rounded=0;exitX=1;exitY=0.3333333333333333;exitDx=0;exitDy=0;exitPerimeter=0;entryX=0;entryY=0.5;entryDx=0;entryDy=0;" edge="1" parent="1" source="FvNyua4B0vI4wuUaa5z8-18" target="FvNyua4B0vI4wuUaa5z8-10">
          <mxGeometry width="50" height="50" relative="1" as="geometry">
            <mxPoint x="390" y="440" as="sourcePoint" />
            <mxPoint x="440" y="390" as="targetPoint" />
          </mxGeometry>
        </mxCell>
        <mxCell id="FvNyua4B0vI4wuUaa5z8-28" value="Thủ thư" style="shape=umlActor;verticalLabelPosition=bottom;verticalAlign=top;html=1;outlineConnect=0;" vertex="1" parent="1">
          <mxGeometry x="990" y="230" width="30" height="60" as="geometry" />
        </mxCell>
        <mxCell id="FvNyua4B0vI4wuUaa5z8-29" value="" style="endArrow=none;html=1;rounded=0;exitX=0;exitY=0.3333333333333333;exitDx=0;exitDy=0;exitPerimeter=0;entryX=1;entryY=0.5;entryDx=0;entryDy=0;" edge="1" parent="1" source="FvNyua4B0vI4wuUaa5z8-28" target="FvNyua4B0vI4wuUaa5z8-3">
          <mxGeometry width="50" height="50" relative="1" as="geometry">
            <mxPoint x="390" y="440" as="sourcePoint" />
            <mxPoint x="440" y="390" as="targetPoint" />
          </mxGeometry>
        </mxCell>
        <mxCell id="FvNyua4B0vI4wuUaa5z8-30" value="" style="endArrow=none;html=1;rounded=0;exitX=0;exitY=0.3333333333333333;exitDx=0;exitDy=0;exitPerimeter=0;entryX=1;entryY=0.5;entryDx=0;entryDy=0;" edge="1" parent="1" source="FvNyua4B0vI4wuUaa5z8-28" target="FvNyua4B0vI4wuUaa5z8-5">
          <mxGeometry width="50" height="50" relative="1" as="geometry">
            <mxPoint x="390" y="440" as="sourcePoint" />
            <mxPoint x="440" y="390" as="targetPoint" />
          </mxGeometry>
        </mxCell>
        <mxCell id="FvNyua4B0vI4wuUaa5z8-32" value="" style="endArrow=none;html=1;rounded=0;entryX=0;entryY=0.3333333333333333;entryDx=0;entryDy=0;entryPerimeter=0;exitX=1;exitY=0.5;exitDx=0;exitDy=0;" edge="1" parent="1" source="FvNyua4B0vI4wuUaa5z8-11" target="FvNyua4B0vI4wuUaa5z8-28">
          <mxGeometry width="50" height="50" relative="1" as="geometry">
            <mxPoint x="390" y="440" as="sourcePoint" />
            <mxPoint x="440" y="390" as="targetPoint" />
          </mxGeometry>
        </mxCell>
        <mxCell id="FvNyua4B0vI4wuUaa5z8-34" value="" style="endArrow=none;html=1;rounded=0;entryX=0;entryY=0.3333333333333333;entryDx=0;entryDy=0;entryPerimeter=0;exitX=1;exitY=0.5;exitDx=0;exitDy=0;" edge="1" parent="1" source="FvNyua4B0vI4wuUaa5z8-12" target="FvNyua4B0vI4wuUaa5z8-28">
          <mxGeometry width="50" height="50" relative="1" as="geometry">
            <mxPoint x="390" y="440" as="sourcePoint" />
            <mxPoint x="440" y="390" as="targetPoint" />
          </mxGeometry>
        </mxCell>
        <mxCell id="FvNyua4B0vI4wuUaa5z8-35" value="" style="endArrow=none;html=1;rounded=0;entryX=0;entryY=0.3333333333333333;entryDx=0;entryDy=0;entryPerimeter=0;exitX=1;exitY=0.5;exitDx=0;exitDy=0;" edge="1" parent="1" source="FvNyua4B0vI4wuUaa5z8-13" target="FvNyua4B0vI4wuUaa5z8-28">
          <mxGeometry width="50" height="50" relative="1" as="geometry">
            <mxPoint x="390" y="440" as="sourcePoint" />
            <mxPoint x="440" y="390" as="targetPoint" />
          </mxGeometry>
        </mxCell>
        <mxCell id="FvNyua4B0vI4wuUaa5z8-36" value="" style="endArrow=none;html=1;rounded=0;entryX=0;entryY=0.3333333333333333;entryDx=0;entryDy=0;entryPerimeter=0;exitX=1;exitY=0.5;exitDx=0;exitDy=0;" edge="1" parent="1" source="FvNyua4B0vI4wuUaa5z8-15" target="FvNyua4B0vI4wuUaa5z8-28">
          <mxGeometry width="50" height="50" relative="1" as="geometry">
            <mxPoint x="390" y="440" as="sourcePoint" />
            <mxPoint x="440" y="390" as="targetPoint" />
          </mxGeometry>
        </mxCell>
        <mxCell id="FvNyua4B0vI4wuUaa5z8-37" value="" style="endArrow=none;html=1;rounded=0;entryX=0;entryY=0.3333333333333333;entryDx=0;entryDy=0;entryPerimeter=0;exitX=1;exitY=0.5;exitDx=0;exitDy=0;" edge="1" parent="1" source="FvNyua4B0vI4wuUaa5z8-17" target="FvNyua4B0vI4wuUaa5z8-28">
          <mxGeometry width="50" height="50" relative="1" as="geometry">
            <mxPoint x="390" y="440" as="sourcePoint" />
            <mxPoint x="440" y="390" as="targetPoint" />
          </mxGeometry>
        </mxCell>
        <mxCell id="FvNyua4B0vI4wuUaa5z8-38" value="Hệ thống" style="shape=umlActor;verticalLabelPosition=bottom;verticalAlign=top;html=1;outlineConnect=0;" vertex="1" parent="1">
          <mxGeometry x="980" y="610" width="30" height="60" as="geometry" />
        </mxCell>
        <mxCell id="FvNyua4B0vI4wuUaa5z8-39" value="" style="endArrow=none;html=1;rounded=0;entryX=0;entryY=0.3333333333333333;entryDx=0;entryDy=0;entryPerimeter=0;exitX=1;exitY=0.5;exitDx=0;exitDy=0;" edge="1" parent="1" source="FvNyua4B0vI4wuUaa5z8-17" target="FvNyua4B0vI4wuUaa5z8-38">
          <mxGeometry width="50" height="50" relative="1" as="geometry">
            <mxPoint x="390" y="570" as="sourcePoint" />
            <mxPoint x="440" y="520" as="targetPoint" />
          </mxGeometry>
        </mxCell>
        <mxCell id="FvNyua4B0vI4wuUaa5z8-40" value="" style="endArrow=none;html=1;rounded=0;entryX=0;entryY=0.3333333333333333;entryDx=0;entryDy=0;entryPerimeter=0;exitX=1;exitY=0.5;exitDx=0;exitDy=0;" edge="1" parent="1" source="FvNyua4B0vI4wuUaa5z8-16" target="FvNyua4B0vI4wuUaa5z8-38">
          <mxGeometry width="50" height="50" relative="1" as="geometry">
            <mxPoint x="390" y="570" as="sourcePoint" />
            <mxPoint x="440" y="520" as="targetPoint" />
          </mxGeometry>
        </mxCell>
      </root>
    </mxGraphModel>
  </diagram>
</mxfile>
